<?xml version="1.0" standalone="no"?><!DOCTYPE svg PUBLIC "-//W3C//DTD SVG 1.1//EN" "http://www.w3.org/Graphics/SVG/1.1/DTD/svg11.dtd"><svg t="1696417450834" class="icon" viewBox="0 0 1843 1024" version="1.1" xmlns="http://www.w3.org/2000/svg" p-id="4020" width="115.1875" height="64" xmlns:xlink="http://www.w3.org/1999/xlink"><path d="M388.263936 439.853056a42.491904 42.491904 0 0 0-18.640896 37.2736 42.1888 42.1888 0 0 0 12.82048 31.5392c6.639616 6.303744 21.086208 14.061568 43.102208 23.105536 12.582912 5.246976 20.25472 9.15456 23.3472 12.140544a13.98784 13.98784 0 0 1 4.780032 10.743808c0 11.280384-10.50624 17.002496-31.244288 17.002496a170.33216 170.33216 0 0 1-49.426432-8.72448v31.281152a229.56032 229.56032 0 0 0 51.392512 5.976064c20.230144 0 36.929536-3.948544 49.598464-11.587584a45.338624 45.338624 0 0 0 23.3472-41.005056 41.283584 41.283584 0 0 0-11.8784-30.429184c-6.688768-6.651904-20.48-14.589952-40.861696-23.629824-14.503936-6.5536-23.08096-10.69056-26.329088-12.746752a11.931648 11.931648 0 0 1-6.176768-10.350592c0-11.034624 9.859072-16.543744 29.356032-16.543744a118.218752 118.218752 0 0 1 42.676224 8.978432v-29.9008a267.595776 267.595776 0 0 0-47.345664-5.976064c-19.836928 0-36.175872 4.284416-48.549888 12.857344" fill="#098F91" p-id="4021"></path><path d="M525.934592 429.912064h45.19936v166.821888h-45.19936z" fill="#098F91" p-id="4022"></path><path d="M616.30464 429.912064v166.821888h120.918016v-30.261248h-76.43136a0.978944 0.978944 0 0 1-0.978944-1.048576v-39.989248a0.94208 0.94208 0 0 1 0.978944-0.978944h64.679936v-25.894912h-64.679936a1.00352 1.00352 0 0 1-0.978944-0.98304v-38.13376a0.933888 0.933888 0 0 1 0.978944-0.933888h74.477568v-28.598272z" fill="#098F91" p-id="4023"></path><path d="M916.803584 429.912064c-0.536576 1.18784-43.278336 107.270144-43.278336 107.270144a1.011712 1.011712 0 0 1-0.909312 0.503808 0.937984 0.937984 0 0 1-0.937984-0.503808s-41.709568-106.0864-42.217472-107.270144h-59.486208v166.821888h31.227904v-118.550528a1.060864 1.060864 0 0 1 0.8192-0.96256 1.08544 1.08544 0 0 1 1.097728 0.671744l48.3328 120.60672h27.897856c0.434176-1.2288 49.242112-120.60672 49.242112-120.60672a0.970752 0.970752 0 0 1 1.073152-0.671744 1.011712 1.011712 0 0 1 0.8192 0.96256v118.550528h42.668032v-166.821888z" fill="#098F91" p-id="4024"></path><path d="M1018.331136 429.912064v166.821888h120.930304v-30.261248h-76.427264a0.991232 0.991232 0 0 1-0.974848-1.048576v-39.989248a0.950272 0.950272 0 0 1 0.974848-0.978944h64.679936v-25.894912h-64.679936a1.019904 1.019904 0 0 1-0.974848-0.98304v-38.13376a0.946176 0.946176 0 0 1 0.974848-0.933888h74.514432v-28.598272z" fill="#098F91" p-id="4025"></path><path d="M1284.85376 429.912064v111.98464a0.995328 0.995328 0 0 1-0.7168 0.970752 1.015808 1.015808 0 0 1-1.142784-0.53248s-57.151488-111.4112-57.688064-112.422912h-53.039104v166.821888h31.240192v-113.565696a1.163264 1.163264 0 0 1 0.75776-1.007616 1.2288 1.2288 0 0 1 1.101824 0.569344l59.232256 114.003968h51.52768v-166.821888z" fill="#098F91" p-id="4026"></path><path d="M1366.757376 439.853056a42.418176 42.418176 0 0 0-18.59584 37.163008 42.377216 42.377216 0 0 0 12.730368 31.617024c6.664192 6.320128 21.21728 14.176256 43.147264 23.105536 12.6976 5.246976 20.385792 9.15456 23.49056 12.140544a14.200832 14.200832 0 0 1 4.62848 10.743808c0 11.280384-10.530816 17.002496-31.240192 17.002496a168.169472 168.169472 0 0 1-49.37728-8.72448v31.281152a228.80256 228.80256 0 0 0 51.38432 6.012928c20.209664 0 36.933632-3.948544 49.709056-11.587584a45.391872 45.391872 0 0 0 23.220224-41.005056 41.132032 41.132032 0 0 0-11.8784-30.429184c-6.750208-6.582272-20.48-14.548992-40.722432-23.629824-14.708736-6.623232-23.38816-10.809344-26.456064-12.746752a11.964416 11.964416 0 0 1-6.180864-10.350592c0-11.034624 9.8304-16.543744 29.22496-16.543744a118.472704 118.472704 0 0 1 42.840064 8.978432v-29.9008c-1.077248-0.180224-3.383296-0.618496-3.383296-0.618496a235.35616 235.35616 0 0 0-43.945984-5.357568c-19.890176 0-36.233216 4.284416-48.594944 12.857344" fill="#098F91" p-id="4027"></path><path d="M372.027392 594.948096v-33.263616a171.675648 171.675648 0 0 0 50.417664 8.978432q30.179328 0 30.212096-16.039936a13.14816 13.14816 0 0 0-4.419584-10.051584c-2.953216-2.82624-10.71104-6.81984-23.04-11.821056-22.290432-9.166848-36.737024-17.01888-43.45856-23.416832a43.143168 43.143168 0 0 1-13.1072-32.223232 43.4176 43.4176 0 0 1 19.062784-38.0928c12.627968-8.646656 28.991488-13.037568 49.11104-13.037568a276.594688 276.594688 0 0 1 48.369664 6.144v32.100352a119.660544 119.660544 0 0 0-43.696128-9.371648q-28.3648 0-28.34432 15.601664a10.79296 10.79296 0 0 0 5.697536 9.515008 268.414976 268.414976 0 0 0 26.2144 12.61568c20.598784 9.170944 34.308096 17.113088 41.12384 23.957504a41.51296 41.51296 0 0 1 12.181504 31.06816 46.002176 46.002176 0 0 1-23.8592 41.816064c-12.947456 7.856128-29.53216 11.747328-50.081792 11.747328a226.410496 226.410496 0 0 1-52.379648-6.217728" fill="#098F91" p-id="4028"></path><path d="M524.992512 428.863488h47.075328v168.820736h-47.075328z" fill="#098F91" p-id="4029"></path><path d="M615.366656 597.684224v-168.820736h120.877056v30.580736h-75.452416v38.13376h65.65888v27.8528h-65.65888v40.005632h77.4144v32.264192z" fill="#098F91" p-id="4030"></path><path d="M768.991232 597.684224v-168.820736h61.136896l42.487808 107.925504 43.454464-107.925504h58.118144v168.820736h-44.703744v-119.492608l-49.52064 121.192448h-29.233152l-48.549888-121.192448v119.5008z" fill="#098F91" p-id="4031"></path><path d="M1017.442304 597.684224v-168.820736h120.881152v30.580736h-75.48928v38.13376h65.703936v27.8528h-65.703936v40.005632h77.4144v32.264192z" fill="#098F91" p-id="4032"></path><path d="M1171.296256 597.684224v-168.820736h54.64064l57.925632 113.0496v-113.0496h33.226752v168.820736h-53.075968l-59.531264-114.520064v114.520064z" fill="#098F91" p-id="4033"></path><path d="M1350.549504 594.948096v-33.263616a169.5744 169.5744 0 0 0 50.3808 8.978432c20.201472 0 30.220288-5.349376 30.220288-16.039936a13.447168 13.447168 0 0 0-4.231168-10.051584 90.9312 90.9312 0 0 0-23.22432-11.821056q-33.21856-13.692928-43.454464-23.416832a42.962944 42.962944 0 0 1-13.029376-32.31744 43.180032 43.180032 0 0 1 19.02592-37.994496c12.558336-8.646656 28.971008-13.037568 49.152-13.037568a238.436352 238.436352 0 0 1 44.17536 5.423104l4.128768 0.700416v32.100352a119.689216 119.689216 0 0 0-43.8272-9.371648q-28.22144 0-28.205056 15.601664a10.981376 10.981376 0 0 0 5.636096 9.515008 286.887936 286.887936 0 0 0 26.394624 12.61568c20.48 9.170944 34.07872 17.113088 41.02144 23.957504a41.754624 41.754624 0 0 1 12.14464 31.06816 46.01856 46.01856 0 0 1-23.69536 41.816064q-19.447808 11.784192-50.208768 11.747328a225.927168 225.927168 0 0 1-52.371456-6.217728" fill="#098F91" p-id="4034"></path></svg>